<?xml version="1.0" encoding="UTF-8"?>
<svg version="1.1" xmlns="http://www.w3.org/2000/svg" width="128" height="128">
<path d="M0 0 C0.97301056 -0.0071553 1.94602112 -0.01431061 2.94851685 -0.02168274 C4.01972778 -0.02437164 5.09093872 -0.02706055 6.1946106 -0.02983093 C7.31989166 -0.03640213 8.44517273 -0.04297333 9.60455322 -0.04974365 C13.34046488 -0.06950769 17.07633633 -0.081145 20.81228638 -0.09111023 C22.72171209 -0.09722352 22.72171209 -0.09722352 24.66971207 -0.10346031 C30.70959831 -0.12217857 36.74946005 -0.13674277 42.78936756 -0.14507228 C49.76353303 -0.15484886 56.73738147 -0.18117952 63.7114352 -0.22157317 C69.75025904 -0.25535102 75.78892872 -0.26721546 81.82785416 -0.27127647 C84.39795204 -0.27616022 86.96804611 -0.28782455 89.53808212 -0.30631447 C93.12958052 -0.33055092 96.7202437 -0.32976906 100.3117981 -0.32279968 C101.37896057 -0.33560974 102.44612305 -0.3484198 103.54562378 -0.36161804 C110.72902228 -0.31064967 110.72902228 -0.31064967 114.01202393 1.98904419 C116.08787277 5.25770534 116.50898395 7.86024263 116.52304077 11.64358521 C116.52875092 12.56459518 116.53446106 13.48560516 116.54034424 14.43452454 C116.54202103 15.94707825 116.54202103 15.94707825 116.54373169 17.4901886 C116.55117905 19.08572823 116.55117905 19.08572823 116.55877686 20.71350098 C116.57340629 24.23957461 116.58020181 27.76560325 116.58572388 31.29170227 C116.59147469 33.739268 116.59723243 36.18683372 116.60299683 38.63439941 C116.61350904 43.76992503 116.61935027 48.90543498 116.62283325 54.04096985 C116.62831837 60.62179119 116.65234608 67.20240566 116.68080521 73.78316212 C116.69942794 78.84034836 116.704637 83.89748474 116.70616913 88.95470238 C116.709197 91.38079141 116.71723003 93.80687953 116.73035431 96.23293495 C116.74740669 99.62744005 116.74553625 103.0214393 116.73904419 106.41596985 C116.74825897 107.4182663 116.75747375 108.42056274 116.76696777 109.45323181 C116.73520636 114.75408587 116.43257086 118.59558815 113.38259888 123.14717102 C110.97434096 124.35129998 109.45564362 124.28078974 106.76519775 124.29434204 C105.30568192 124.305075 105.30568192 124.305075 103.81668091 124.31602478 C102.74546997 124.31871368 101.67425903 124.32140259 100.57058716 124.32417297 C99.44530609 124.33074417 98.32002502 124.33731537 97.16064453 124.34408569 C93.42473287 124.36384973 89.68886142 124.37548704 85.95291138 124.38545227 C84.6799609 124.3895278 83.40701042 124.39360332 82.09548569 124.39780235 C76.05559945 124.41652061 70.01573771 124.43108481 63.9758302 124.43941432 C57.00166472 124.4491909 50.02781629 124.47552156 43.05376256 124.51591522 C37.01493871 124.54969306 30.97626904 124.5615575 24.9373436 124.56561852 C22.36724571 124.57050226 19.79715165 124.58216659 17.22711563 124.60065651 C13.63561723 124.62489296 10.04495406 124.6241111 6.45339966 124.61714172 C5.38623718 124.62995178 4.31907471 124.64276184 3.21957397 124.65596008 C-3.9854866 124.60483801 -3.9854866 124.60483801 -7.24682617 122.24279785 C-9.29232918 119.11519729 -9.74435651 117.39513328 -9.75784302 113.68835449 C-9.76355316 112.75044571 -9.76926331 111.81253693 -9.77514648 110.84620667 C-9.77626434 109.81396973 -9.7773822 108.78173279 -9.77853394 107.71821594 C-9.78349884 106.63355545 -9.78846375 105.54889496 -9.7935791 104.43136597 C-9.80822749 100.83011753 -9.81500731 97.22891315 -9.82052612 93.62763977 C-9.82627551 91.13140867 -9.83203327 88.63517759 -9.83779907 86.13894653 C-9.84697125 81.56942541 -9.85326837 76.99991696 -9.85629582 72.43038768 C-9.86077475 65.70701895 -9.87831393 58.98385372 -9.90729642 52.26054686 C-9.93153055 46.43637896 -9.9392408 40.61227888 -9.94097137 34.78806496 C-9.94400201 32.31091009 -9.95204427 29.83375616 -9.96515656 27.35663414 C-9.98218449 23.89236867 -9.98034445 20.42859987 -9.97384644 16.96430969 C-9.98306122 15.93814545 -9.992276 14.9119812 -10.00177002 13.85472107 C-9.95007271 5.06977713 -9.95007271 5.06977713 -6.61740112 1.14717102 C-4.2091432 -0.05695794 -2.69044586 0.0135523 0 0 Z " fill="#04B5FA" transform="translate(10.617401123046875,1.8528289794921875)"/>
<path d="M0 0 C9.90672995 6.86691657 21.70121136 17.5486139 24.05859375 29.97265625 C23.40485427 34.06588991 20.67826191 36.1254679 17.75 38.8125 C13.34060812 42.93848905 13.34060812 42.93848905 9.625 47.6875 C9.61041748 46.79442139 9.59583496 45.90134277 9.58081055 44.98120117 C9.51972923 41.66532722 9.44557522 38.35028101 9.36254883 35.03491211 C9.32930999 33.60045372 9.30127465 32.16586487 9.27856445 30.73120117 C9.24499729 28.66789193 9.19268587 26.60577697 9.13671875 24.54296875 C9.11053467 23.30184326 9.08435059 22.06071777 9.05737305 20.78198242 C8.872369 17.78281347 8.872369 17.78281347 7.48071289 16.01538086 C4.79797101 14.09570804 2.77909153 14.32729586 -0.4987793 14.34692383 C-1.75986008 14.34715042 -3.02094086 14.34737701 -4.32023621 14.34761047 C-5.69656732 14.36293037 -7.07289482 14.37857836 -8.44921875 14.39453125 C-9.85740202 14.4001274 -11.26559114 14.40439741 -12.67378235 14.40739441 C-16.37781944 14.41884182 -20.0815029 14.44830765 -23.78540039 14.48150635 C-27.56586931 14.51220974 -31.34639543 14.52590029 -35.12695312 14.54101562 C-42.54312986 14.57317784 -49.95901536 14.62437245 -57.375 14.6875 C-58.035 16.0075 -58.695 17.3275 -59.375 18.6875 C-38.585 18.6875 -17.795 18.6875 3.625 18.6875 C3.625 31.8875 3.625 45.0875 3.625 58.6875 C-10.895 58.6875 -25.415 58.6875 -40.375 58.6875 C-40.375 62.3175 -40.375 65.9475 -40.375 69.6875 C-37.075 69.6875 -33.775 69.6875 -30.375 69.6875 C-30.375 70.0175 -30.375 70.3475 -30.375 70.6875 C-31.6125 70.77 -32.85 70.8525 -34.125 70.9375 C-36.89269321 71.31469005 -38.36563366 71.68197626 -40.8125 73.125 C-43.21201646 77.060207 -43.20192025 81.15281065 -43.375 85.6875 C-43.705 85.6875 -44.035 85.6875 -44.375 85.6875 C-44.38086624 84.96753342 -44.38673248 84.24756683 -44.39277649 83.50578308 C-44.45066863 76.72236974 -44.52272514 69.93923902 -44.61071491 63.15615368 C-44.65545208 59.6688232 -44.69470032 56.18161043 -44.72143555 52.6940918 C-44.75240851 48.68508213 -44.80719816 44.67670633 -44.86328125 40.66796875 C-44.86967117 39.41477341 -44.8760611 38.16157806 -44.88264465 36.8704071 C-44.90243881 35.70943008 -44.92223297 34.54845306 -44.94262695 33.35229492 C-44.95928154 31.81674202 -44.95928154 31.81674202 -44.97627258 30.25016785 C-45.43084899 27.32855199 -46.01808448 26.41464849 -48.375 24.6875 C-50.36355078 24.24546288 -50.36355078 24.24546288 -52.53515625 24.32421875 C-53.7252832 24.32518555 -53.7252832 24.32518555 -54.93945312 24.32617188 C-55.76380859 24.34228516 -56.58816406 24.35839844 -57.4375 24.375 C-58.67983398 24.37016602 -58.67983398 24.37016602 -59.94726562 24.36523438 C-64.66557609 24.16156204 -64.66557609 24.16156204 -68.375 26.6875 C-68.68644963 29.3771371 -68.68644963 29.3771371 -68.64624023 32.55834961 C-68.65642685 33.78980209 -68.66661346 35.02125458 -68.67710876 36.2900238 C-68.67804976 36.94982176 -68.67899075 37.60961971 -68.67996025 38.28941154 C-68.68361723 40.35309402 -68.70032421 42.41629299 -68.72071838 44.47987366 C-68.77619748 50.34708677 -68.80682913 56.21437148 -68.83129883 62.08178711 C-68.84716596 65.66985173 -68.87737594 69.25757366 -68.91606331 72.84546089 C-68.92772173 74.21336799 -68.93364373 75.58133636 -68.93374443 76.94929314 C-68.93393627 78.8619953 -68.95370144 80.77466531 -68.97436523 82.68725586 C-68.98197121 84.3203495 -68.98197121 84.3203495 -68.98973083 85.98643494 C-69.41726805 88.98383504 -70.0074784 89.88173911 -72.375 91.6875 C-76.23122818 90.40209061 -76.7715617 88.91808723 -78.875 85.5 C-79.4628125 84.55769531 -80.050625 83.61539063 -80.65625 82.64453125 C-88.64757287 68.8958235 -90.58729924 52.57392134 -87.68359375 36.97265625 C-83.10974787 20.87807722 -73.24310366 7.99509125 -59.375 -1.3125 C-39.77874911 -11.93501945 -19.13343242 -10.87904905 0 0 Z " fill="#0571F0" transform="translate(94.375,12.3125)"/>
<path d="M0 0 C0.97301056 -0.0071553 1.94602112 -0.01431061 2.94851685 -0.02168274 C4.01972778 -0.02437164 5.09093872 -0.02706055 6.1946106 -0.02983093 C7.31989166 -0.03640213 8.44517273 -0.04297333 9.60455322 -0.04974365 C13.34046488 -0.06950769 17.07633633 -0.081145 20.81228638 -0.09111023 C22.72171209 -0.09722352 22.72171209 -0.09722352 24.66971207 -0.10346031 C30.70959831 -0.12217857 36.74946005 -0.13674277 42.78936756 -0.14507228 C49.76353303 -0.15484886 56.73738147 -0.18117952 63.7114352 -0.22157317 C69.75025904 -0.25535102 75.78892872 -0.26721546 81.82785416 -0.27127647 C84.39795204 -0.27616022 86.96804611 -0.28782455 89.53808212 -0.30631447 C93.12958052 -0.33055092 96.7202437 -0.32976906 100.3117981 -0.32279968 C101.37896057 -0.33560974 102.44612305 -0.3484198 103.54562378 -0.36161804 C110.72902228 -0.31064967 110.72902228 -0.31064967 114.01202393 1.98904419 C116.08787277 5.25770534 116.50898395 7.86024263 116.52304077 11.64358521 C116.52875092 12.56459518 116.53446106 13.48560516 116.54034424 14.43452454 C116.54202103 15.94707825 116.54202103 15.94707825 116.54373169 17.4901886 C116.55117905 19.08572823 116.55117905 19.08572823 116.55877686 20.71350098 C116.57340629 24.23957461 116.58020181 27.76560325 116.58572388 31.29170227 C116.59147469 33.739268 116.59723243 36.18683372 116.60299683 38.63439941 C116.61350904 43.76992503 116.61935027 48.90543498 116.62283325 54.04096985 C116.62831837 60.62179119 116.65234608 67.20240566 116.68080521 73.78316212 C116.69942794 78.84034836 116.704637 83.89748474 116.70616913 88.95470238 C116.709197 91.38079141 116.71723003 93.80687953 116.73035431 96.23293495 C116.74740669 99.62744005 116.74553625 103.0214393 116.73904419 106.41596985 C116.74825897 107.4182663 116.75747375 108.42056274 116.76696777 109.45323181 C116.73520636 114.75408587 116.43257086 118.59558815 113.38259888 123.14717102 C110.97434096 124.35129998 109.45564362 124.28078974 106.76519775 124.29434204 C105.30568192 124.305075 105.30568192 124.305075 103.81668091 124.31602478 C102.74546997 124.31871368 101.67425903 124.32140259 100.57058716 124.32417297 C99.44530609 124.33074417 98.32002502 124.33731537 97.16064453 124.34408569 C93.42473287 124.36384973 89.68886142 124.37548704 85.95291138 124.38545227 C84.6799609 124.3895278 83.40701042 124.39360332 82.09548569 124.39780235 C76.05559945 124.41652061 70.01573771 124.43108481 63.9758302 124.43941432 C57.00166472 124.4491909 50.02781629 124.47552156 43.05376256 124.51591522 C37.01493871 124.54969306 30.97626904 124.5615575 24.9373436 124.56561852 C22.36724571 124.57050226 19.79715165 124.58216659 17.22711563 124.60065651 C13.63561723 124.62489296 10.04495406 124.6241111 6.45339966 124.61714172 C5.38623718 124.62995178 4.31907471 124.64276184 3.21957397 124.65596008 C-3.9854866 124.60483801 -3.9854866 124.60483801 -7.24682617 122.24279785 C-9.29232918 119.11519729 -9.74435651 117.39513328 -9.75784302 113.68835449 C-9.76355316 112.75044571 -9.76926331 111.81253693 -9.77514648 110.84620667 C-9.77626434 109.81396973 -9.7773822 108.78173279 -9.77853394 107.71821594 C-9.78349884 106.63355545 -9.78846375 105.54889496 -9.7935791 104.43136597 C-9.80822749 100.83011753 -9.81500731 97.22891315 -9.82052612 93.62763977 C-9.82627551 91.13140867 -9.83203327 88.63517759 -9.83779907 86.13894653 C-9.84697125 81.56942541 -9.85326837 76.99991696 -9.85629582 72.43038768 C-9.86077475 65.70701895 -9.87831393 58.98385372 -9.90729642 52.26054686 C-9.93153055 46.43637896 -9.9392408 40.61227888 -9.94097137 34.78806496 C-9.94400201 32.31091009 -9.95204427 29.83375616 -9.96515656 27.35663414 C-9.98218449 23.89236867 -9.98034445 20.42859987 -9.97384644 16.96430969 C-9.98306122 15.93814545 -9.992276 14.9119812 -10.00177002 13.85472107 C-9.95007271 5.06977713 -9.95007271 5.06977713 -6.61740112 1.14717102 C-4.2091432 -0.05695794 -2.69044586 0.0135523 0 0 Z M8.40994263 23.26826477 C-3.13450611 37.09623084 -5.95013478 52.74664597 -4.61740112 70.14717102 C-2.47860438 87.60858269 6.22664303 100.77247003 19.75759888 111.95967102 C33.15142259 121.88795992 48.4210814 123.89229577 64.57400513 121.71748352 C80.32123074 117.91561981 93.34594604 108.53429284 102.55838013 95.32295227 C111.06374129 80.51597449 113.83724057 63.29002396 110.69900513 46.48701477 C109.77499132 43.5769464 108.69808354 40.90108284 107.38259888 38.14717102 C106.74644653 36.75498352 106.74644653 36.75498352 106.09744263 35.33467102 C98.95182793 21.00363319 87.21397511 10.84554189 72.38259888 5.14717102 C71.72751343 4.8860553 71.07242798 4.62493958 70.39749146 4.35591125 C64.5511311 2.18536375 59.28136346 1.63793032 53.07009888 1.70967102 C51.6869751 1.72103088 51.6869751 1.72103088 50.27590942 1.73262024 C32.97788026 2.14944022 19.94653852 10.86356859 8.40994263 23.26826477 Z " fill="#FBFDFE" transform="translate(10.617401123046875,1.8528289794921875)"/>
<path d="M0 0 C20.79 0 41.58 0 63 0 C63 13.2 63 26.4 63 40 C48.48 40 33.96 40 19 40 C19 43.63 19 47.26 19 51 C22.3 51 25.6 51 29 51 C29 51.33 29 51.66 29 52 C27.7625 52.0825 26.525 52.165 25.25 52.25 C22.48230679 52.62719005 21.00936634 52.99447626 18.5625 54.4375 C16.16298354 58.372707 16.17307975 62.46531065 16 67 C15.67 67 15.34 67 15 67 C14.99413376 66.28225403 14.98826752 65.56450806 14.98222351 64.82501221 C14.92428853 58.0566269 14.85220724 51.28852369 14.76428509 44.52046585 C14.71958205 41.04101127 14.68032622 37.56167375 14.65356445 34.08203125 C14.62254861 30.08042826 14.56776003 26.07945632 14.51171875 22.078125 C14.50532883 20.83009094 14.4989389 19.58205688 14.49235535 18.29620361 C14.47256119 17.13530212 14.45276703 15.97440063 14.43237305 14.77832031 C14.42126999 13.75683899 14.41016693 12.73535767 14.39872742 11.68292236 C13.94778362 8.64865099 13.02777583 7.25613246 11 5 C12.32 4.01 13.64 3.02 15 2 C10.05 1.67 5.1 1.34 0 1 C0 0.67 0 0.34 0 0 Z " fill="#028DF5" transform="translate(35,31)"/>
<path d="M0 0 C0.78890625 -0.00386719 1.5778125 -0.00773437 2.390625 -0.01171875 C3.21046875 -0.00011719 4.0303125 0.01148438 4.875 0.0234375 C6.10476562 0.00603516 6.10476562 0.00603516 7.359375 -0.01171875 C8.54273438 -0.00591797 8.54273438 -0.00591797 9.75 0 C10.46929687 0.00338379 11.18859375 0.00676758 11.9296875 0.01025391 C14.52458598 0.52806121 15.27230935 1.29802463 16.875 3.3984375 C17.25595093 6.0168457 17.25595093 6.0168457 17.26318359 9.19921875 C17.27264008 10.3905542 17.28209656 11.58188965 17.2918396 12.80932617 C17.28576691 14.09685791 17.27969421 15.38438965 17.2734375 16.7109375 C17.27545855 18.04467935 17.27837026 19.37842013 17.28213501 20.7121582 C17.28655696 23.50645476 17.2801319 26.30046348 17.26611328 29.09472656 C17.24902094 32.67618215 17.25886289 36.25696332 17.27683067 39.83839417 C17.28767231 42.59221476 17.28422054 45.34587551 17.2764473 48.09970093 C17.27347329 50.06232135 17.28258292 52.02494798 17.2918396 53.98754883 C17.28238312 55.17888428 17.27292664 56.37021973 17.26318359 57.59765625 C17.26079681 58.64783936 17.25841003 59.69802246 17.25595093 60.7800293 C16.875 63.3984375 16.875 63.3984375 15.47904968 65.23672485 C13.38651406 66.75221725 12.06592086 66.78554586 9.49609375 66.796875 C8.65755859 66.80074219 7.81902344 66.80460937 6.95507812 66.80859375 C5.64700195 66.79119141 5.64700195 66.79119141 4.3125 66.7734375 C2.99862305 66.79083984 2.99862305 66.79083984 1.65820312 66.80859375 C0.40233398 66.80279297 0.40233398 66.80279297 -0.87890625 66.796875 C-2.02854858 66.79179932 -2.02854858 66.79179932 -3.20141602 66.78662109 C-5.125 66.3984375 -5.125 66.3984375 -7.125 63.3984375 C-7.38569641 60.7800293 -7.38569641 60.7800293 -7.3996582 57.59765625 C-7.41395622 55.81065308 -7.41395622 55.81065308 -7.42854309 53.98754883 C-7.42763168 52.70001709 -7.42672028 51.41248535 -7.42578125 50.0859375 C-7.42966838 48.75219591 -7.43400309 47.41845555 -7.43876648 46.0847168 C-7.4462259 43.2904865 -7.44593918 40.49638256 -7.44067383 37.70214844 C-7.43487469 34.1207253 -7.45182151 30.53981856 -7.4750185 26.95848083 C-7.48974588 24.20468114 -7.49062903 21.45100617 -7.48750877 18.69717407 C-7.48827207 16.73453497 -7.50215113 14.77191522 -7.51618958 12.80932617 C-7.50996078 11.61799072 -7.50373199 10.42665527 -7.49731445 9.19921875 C-7.49794388 8.14903564 -7.4985733 7.09885254 -7.4992218 6.0168457 C-7.125 3.3984375 -7.125 3.3984375 -5.72331238 1.56015015 C-3.69721051 0.08750425 -2.49076501 0.01171731 0 0 Z " fill="#F6FAFE" transform="translate(32.125,35.6015625)"/>
<path d="M0 0 C1.87732315 -0.01441132 1.87732315 -0.01441132 3.79257202 -0.02911377 C5.16981831 -0.03396139 6.5470667 -0.03824031 7.92431641 -0.04199219 C9.3281759 -0.04774146 10.73203535 -0.05349922 12.13589478 -0.05926514 C15.08327603 -0.06978438 18.03062994 -0.07562085 20.97802734 -0.07910156 C24.75676173 -0.0845855 28.53513562 -0.108607 32.31375694 -0.13707352 C35.21508848 -0.15568904 38.11633305 -0.16090492 41.01771927 -0.16243744 C42.41080316 -0.16546745 43.8038854 -0.17350777 45.19691086 -0.18662262 C47.14552452 -0.20365697 49.09428618 -0.19996184 51.04296875 -0.1953125 C52.15247894 -0.19895813 53.26198914 -0.20260376 54.40512085 -0.20635986 C57.15087891 0.16113281 57.15087891 0.16113281 59.00836182 1.37823486 C60.51041003 3.72218115 60.53146265 5.26567021 60.5390625 8.04394531 C60.54851898 9.03507324 60.55797546 10.02620117 60.56771851 11.04736328 C60.56164581 12.11615723 60.55557312 13.18495117 60.54931641 14.28613281 C60.55218658 15.3845752 60.55505676 16.48301758 60.55801392 17.61474609 C60.56005627 19.93815628 60.55451454 22.2615836 60.54199219 24.58496094 C60.52594168 28.14719993 60.54183588 31.70830423 60.56103516 35.27050781 C60.55905276 37.52571866 60.55520915 39.78092879 60.54931641 42.03613281 C60.5553891 43.10492676 60.56146179 44.1737207 60.56771851 45.27490234 C60.55353378 46.76159424 60.55353378 46.76159424 60.5390625 48.27832031 C60.53667572 49.15085449 60.53428894 50.02338867 60.53182983 50.92236328 C60.15087891 53.16113281 60.15087891 53.16113281 58.91181946 54.94502258 C56.65388014 56.50436148 55.32041573 56.5241701 52.58764648 56.50170898 C51.66691849 56.50148239 50.74619049 56.5012558 49.79756165 56.50102234 C48.80685165 56.48553848 47.81614166 56.47005463 46.79541016 56.45410156 C45.77863693 56.44985672 44.76186371 56.44561188 43.71427917 56.4412384 C40.46371079 56.42443279 37.21376021 56.38677663 33.96337891 56.34863281 C31.7609139 56.33358843 29.55843918 56.3198996 27.35595703 56.30761719 C21.95402593 56.274523 16.5525572 56.2227273 11.15087891 56.16113281 C11.15087891 52.53113281 11.15087891 48.90113281 11.15087891 45.16113281 C25.67087891 45.16113281 40.19087891 45.16113281 55.15087891 45.16113281 C55.15087891 31.96113281 55.15087891 18.76113281 55.15087891 5.16113281 C34.36087891 5.16113281 13.57087891 5.16113281 -7.84912109 5.16113281 C-6.38832354 -0.68205741 -5.69610416 0.03510457 0 0 Z " fill="#F2F9FE" transform="translate(42.84912109375,25.8388671875)"/>
<path d="M0 0 C0.33 0 0.66 0 1 0 C1.33 15.84 1.66 31.68 2 48 C3.65 46.35 5.3 44.7 7 43 C9.89904608 42.3020815 12.05833162 42.06211668 15 42 C16.23621094 41.96132812 17.47242188 41.92265625 18.74609375 41.8828125 C29.50684789 41.67123193 29.50684789 41.67123193 33 44 C31.39441516 45.92536938 30.52230522 46.91074167 28.00708008 47.34057617 C27.26868896 47.32486572 26.53029785 47.30915527 25.76953125 47.29296875 C24.96708984 47.28330078 24.16464844 47.27363281 23.33789062 47.26367188 C22.50451172 47.23853516 21.67113281 47.21339844 20.8125 47.1875 C19.5450293 47.16719727 19.5450293 47.16719727 18.25195312 47.14648438 C16.16769616 47.11115799 14.08376723 47.05735139 12 47 C12.09023438 47.74765625 12.18046875 48.4953125 12.2734375 49.265625 C12 52 12 52 10.1640625 53.921875 C9.32617188 54.52515625 8.48828125 55.1284375 7.625 55.75 C3.83704283 58.58828519 0.24595775 61.49438358 -3.25 64.6875 C-4.07628906 65.43 -4.90257813 66.1725 -5.75390625 66.9375 C-7.10370629 68.17696856 -8.43224868 69.44111027 -9.71484375 70.75 C-11.1875 72.1875 -11.1875 72.1875 -14 74 C-20.50936406 73.5265917 -23.91080765 69.64850437 -28 65 C-26.02 62.03 -26.02 62.03 -24 59 C-23.34 59.33 -22.68 59.66 -22 60 C-22 60.66 -22 61.32 -22 62 C-18.8742604 61.89037184 -15.74975219 61.75968759 -12.625 61.625 C-11.29082031 61.57859375 -11.29082031 61.57859375 -9.9296875 61.53125 C-8.65351562 61.47324219 -8.65351562 61.47324219 -7.3515625 61.4140625 C-6.56604004 61.3826416 -5.78051758 61.3512207 -4.97119141 61.31884766 C-2.76997061 61.1600535 -2.76997061 61.1600535 -1 59 C-0.66802252 56.41171572 -0.66802252 56.41171572 -0.68115234 53.35693359 C-0.66128265 52.17586029 -0.64141296 50.99478699 -0.62094116 49.77792358 C-0.60938995 48.49769318 -0.59783875 47.21746277 -0.5859375 45.8984375 C-0.56657135 44.59170074 -0.5472052 43.28496399 -0.5272522 41.93862915 C-0.4758583 38.46332891 -0.43627178 34.98798988 -0.39910889 31.51251221 C-0.35911447 27.96657659 -0.30800141 24.42080338 -0.2578125 20.875 C-0.16096753 13.91678524 -0.07659034 6.95846635 0 0 Z " fill="#16A6F8" transform="translate(49,40)"/>
<path d="M0 0 C6.31269848 4.76673151 10.08520321 10.16201721 14 17 C14.39574219 17.66773437 14.79148438 18.33546875 15.19921875 19.0234375 C16.2853057 21.70421797 16.53782318 23.12307283 16 26 C14.0941959 28.24383663 12.27631181 30.15091296 10.125 32.125 C5.71560812 36.25098905 5.71560812 36.25098905 2 41 C1.98541748 40.10692139 1.97083496 39.21384277 1.95581055 38.29370117 C1.89472923 34.97782722 1.82057522 31.66278101 1.73754883 28.34741211 C1.70430999 26.91295372 1.67627465 25.47836487 1.65356445 24.04370117 C1.61999729 21.98039193 1.56768587 19.91827697 1.51171875 17.85546875 C1.48553467 16.61434326 1.45935059 15.37321777 1.43237305 14.09448242 C1.2265693 11.06976953 1.2265693 11.06976953 -0.19921875 9.10351562 C-2.64188218 7.60665572 -4.46719089 7.56720467 -7.32421875 7.48828125 C-8.86625977 7.43510742 -8.86625977 7.43510742 -10.43945312 7.38085938 C-12.04723633 7.34702148 -12.04723633 7.34702148 -13.6875 7.3125 C-14.77095703 7.27833984 -15.85441406 7.24417969 -16.97070312 7.20898438 C-19.6470322 7.1264544 -22.32303159 7.05732063 -25 7 C-25 6.67 -25 6.34 -25 6 C-24.34926514 5.99589111 -23.69853027 5.99178223 -23.02807617 5.98754883 C-20.08029254 5.95465827 -17.13458866 5.88402238 -14.1875 5.8125 C-13.16333984 5.80669922 -12.13917969 5.80089844 -11.08398438 5.79492188 C-8.2990395 5.71274317 -5.72245192 5.5967412 -3 5 C-0.69478519 2.65748383 -0.69478519 2.65748383 0 0 Z " fill="#059BF6" transform="translate(102,19)"/>
<path d="M0 0 C4.95 0 9.9 0 15 0 C15 1.65 15 3.3 15 5 C16.65 5.66 18.3 6.32 20 7 C20 7.99 20 8.98 20 10 C12.08 10 4.16 10 -4 10 C-3.67 8.68 -3.34 7.36 -3 6 C-2.01 5.67 -1.02 5.34 0 5 C0 3.35 0 1.7 0 0 Z " fill="#EEFAFE" transform="translate(61,87)"/>
<path d="M0 0 C0.66 0.33 1.32 0.66 2 1 C2 1.66 2 2.32 2 3 C7.61 3.33 13.22 3.66 19 4 C19 7 19 7 17.27734375 9.11328125 C10.99594022 15.01717138 10.99594022 15.01717138 6.375 14.9375 C2.18314746 12.53106614 -0.82417911 9.61020369 -4 6 C-2.68 4.02 -1.36 2.04 0 0 Z " fill="#039EF7" transform="translate(25,99)"/>
<path d="M0 0 C14.52 0 29.04 0 44 0 C44 0.66 44 1.32 44 2 C34.76 2 25.52 2 16 2 C16.33 3.98 16.66 5.96 17 8 C15.35 7.67 13.7 7.34 12 7 C12.33 5.68 12.66 4.36 13 3 C9.37 2.67 5.74 2.34 2 2 C1.67 4.64 1.34 7.28 1 10 C15.85 10 30.7 10 46 10 C46 10.33 46 10.66 46 11 C30.82 11 15.64 11 0 11 C0 7.37 0 3.74 0 0 Z " fill="#88D5FB" transform="translate(54,71)"/>
<path d="M0 0 C4.29 0.33 8.58 0.66 13 1 C12.67 2.65 12.34 4.3 12 6 C12.33 6.99 12.66 7.98 13 9 C8.71 9 4.42 9 0 9 C0 6.03 0 3.06 0 0 Z " fill="#FEFEFE" transform="translate(55,72)"/>
<path d="M0 0 C4.95 0 9.9 0 15 0 C15 1.65 15 3.3 15 5 C10.05 5 5.1 5 0 5 C0 3.35 0 1.7 0 0 Z " fill="#2D8AF3" transform="translate(30,41)"/>
<path d="M0 0 C13.86 0 27.72 0 42 0 C42 0.33 42 0.66 42 1 C32.76 1 23.52 1 14 1 C14.33 2.98 14.66 4.96 15 7 C13.35 6.67 11.7 6.34 10 6 C10.33 4.68 10.66 3.36 11 2 C7.37 1.67 3.74 1.34 0 1 C0 0.67 0 0.34 0 0 Z " fill="#FBFDFF" transform="translate(56,72)"/>
<path d="M0 0 C0.33 0 0.66 0 1 0 C1.3671875 2.1171875 1.3671875 2.1171875 1 5 C-0.9058041 7.24383663 -2.72368819 9.15091296 -4.875 11.125 C-9.28439188 15.25098905 -9.28439188 15.25098905 -13 20 C-13 16.37 -13 12.74 -13 9 C-12.34 9.66 -11.68 10.32 -11 11 C-9.34772462 9.73755365 -7.70336049 8.46474765 -6.0625 7.1875 C-5.14597656 6.47980469 -4.22945312 5.77210937 -3.28515625 5.04296875 C-0.76863487 3.13338142 -0.76863487 3.13338142 0 0 Z " fill="#02A5F8" transform="translate(117,40)"/>
<path d="M0 0 C4.62 0 9.24 0 14 0 C14 1.32 14 2.64 14 4 C9.38 4 4.76 4 0 4 C0 2.68 0 1.36 0 0 Z " fill="#0075F1" transform="translate(30,52)"/>
<path d="M0 0 C0.33 0 0.66 0 1 0 C1 3.3 1 6.6 1 10 C4.3 10 7.6 10 11 10 C11 10.33 11 10.66 11 11 C9.7625 11.0825 8.525 11.165 7.25 11.25 C4.48230679 11.62719005 3.00936634 11.99447626 0.5625 13.4375 C-1.83701646 17.372707 -1.82692025 21.46531065 -2 26 C-2.33 26 -2.66 26 -3 26 C-3 20.72 -3 15.44 -3 10 C-2.34 10 -1.68 10 -1 10 C-0.67 6.7 -0.34 3.4 0 0 Z " fill="#049AF6" transform="translate(53,72)"/>
<path d="M0 0 C0.66 0.33 1.32 0.66 2 1 C1.125 5.875 1.125 5.875 0 7 C-1.85369611 7.08737645 -3.71067541 7.10698153 -5.56640625 7.09765625 C-6.69111328 7.09443359 -7.81582031 7.09121094 -8.97460938 7.08789062 C-10.15861328 7.07951172 -11.34261719 7.07113281 -12.5625 7.0625 C-13.75037109 7.05798828 -14.93824219 7.05347656 -16.16210938 7.04882812 C-19.10812226 7.03699675 -22.05403681 7.02051287 -25 7 C-25 6.67 -25 6.34 -25 6 C-24.34926514 5.99589111 -23.69853027 5.99178223 -23.02807617 5.98754883 C-20.08029254 5.95465827 -17.13458866 5.88402238 -14.1875 5.8125 C-13.16333984 5.80669922 -12.13917969 5.80089844 -11.08398438 5.79492188 C-8.2990395 5.71274317 -5.72245192 5.5967412 -3 5 C-0.69478519 2.65748383 -0.69478519 2.65748383 0 0 Z " fill="#0C8BF4" transform="translate(102,19)"/>
<path d="M0 0 C3.63 0 7.26 0 11 0 C7.09618178 3.90381822 5.33820964 3.56244183 0 4 C0 2.68 0 1.36 0 0 Z " fill="#006CF0" transform="translate(30,42)"/>
<path d="M0 0 C1.98 0.495 1.98 0.495 4 1 C4 2.32 4 3.64 4 5 C2.35 4.67 0.7 4.34 -1 4 C-0.67 2.68 -0.34 1.36 0 0 Z " fill="#2EB0F8" transform="translate(67,74)"/>
<path d="M0 0 C0.66 0.33 1.32 0.66 2 1 C1.43628586 4.26954202 0.50037734 5.82575883 -2 8 C-2.66 7.01 -3.32 6.02 -4 5 C-2.68 3.35 -1.36 1.7 0 0 Z " fill="#139CF6" transform="translate(25,99)"/>
<path d="M0 0 C1.32 0 2.64 0 4 0 C4 1.65 4 3.3 4 5 C2.68 4.67 1.36 4.34 0 4 C0 2.68 0 1.36 0 0 Z " fill="#219AF6" transform="translate(30,82)"/>
</svg>
